<?xml version="1.0" encoding="UTF-8" standalone="no"?>
<svg width="1024px" height="1024px" viewBox="0 0 1024 1024" version="1.1" xmlns="http://www.w3.org/2000/svg" xmlns:xlink="http://www.w3.org/1999/xlink" xmlns:sketch="http://www.bohemiancoding.com/sketch/ns">
    <!-- Generator: Sketch 3.3.3 (12081) - http://www.bohemiancoding.com/sketch -->
    <title>debate-summary-icon</title>
    <desc>Created with Sketch.</desc>
    <defs>
        <linearGradient x1="50.026469%" y1="97.106034%" x2="50.026469%" y2="614.715876%" id="linearGradient-1">
            <stop stop-color="#5B5B5B" offset="0%"></stop>
            <stop stop-color="#4F3635" offset="100%"></stop>
        </linearGradient>
        <linearGradient x1="50.013231%" y1="7.64328247%" x2="50.013231%" y2="91.4725879%" id="linearGradient-2">
            <stop stop-color="#969696" offset="0%"></stop>
            <stop stop-color="#515151" offset="100%"></stop>
        </linearGradient>
        <linearGradient x1="49.9735029%" y1="-77.3056494%" x2="49.9735029%" y2="140.038629%" id="linearGradient-3">
            <stop stop-color="#5B5B5B" offset="0%"></stop>
            <stop stop-color="#434343" offset="100%"></stop>
        </linearGradient>
        <linearGradient x1="90.3766601%" y1="13.2643235%" x2="-0.860004354%" y2="56.4275397%" id="linearGradient-4">
            <stop stop-color="#B3B3B3" offset="0%"></stop>
            <stop stop-color="#1A1A1A" offset="100%"></stop>
        </linearGradient>
    </defs>
    <g id="Page-1" stroke="none" stroke-width="1" fill="none" fill-rule="evenodd" sketch:type="MSPage">
        <g id="debate-summary-icon" sketch:type="MSArtboardGroup">
            <g id="Signpost-Greyscale-Copy" sketch:type="MSLayerGroup" transform="translate(52.144729, 201.147682)">
                <path d="M905.19277,138.345306 C914.783797,128.187775 922.780712,116.146292 920.462002,102.418475 C918.143292,88.63796 906.786883,75.160458 894.416038,68.7049586 L812.668336,26.5070713 C802.603026,21.2767993 788.888383,20.1569677 778.01943,23.7140797 L496.045849,119.492613 L496.045849,48.9695745 C496.045849,32.9625707 488.878927,13.1744887 453.255109,13.1744887 C415.62877,13.1744887 409.81882,31.1576658 409.81882,46.2951533 L409.81882,148.292045 L385.393318,156.341657 L252.212412,200.186356 C243.925658,202.939824 236.692864,207.906606 231.264975,214.625595 L198.052089,257.113321 C191.280401,265.439598 186.247747,276.374424 186.247747,287.085283 C186.247747,293.382689 188.737725,298.244075 188.737725,298.244075 L119.8088,298.244075 C109.400954,298.244075 99.2829469,301.840711 91.3519047,308.441129 L17.2981037,369.531234 C6.91660657,378.055128 2.59537427,386.618545 2.59537427,400.043349 C2.59537427,413.468153 6.89025759,422.624423 17.2454057,431.161492 L91.8525352,491.76414 C99.8757988,498.443606 110.046504,502.106113 120.480699,502.106113 L411.175792,502.106113 L411.175792,557.662932 L497.402821,616.184011 L497.402821,406.446151 L641.518553,426.405501 C651.13593,428.052312 660.463468,426.721689 668.684349,422.808866 C669.224503,422.532202 684.256594,414.45624 695.823795,402.493804 C700.619309,397.500673 705.138159,392.17818 705.599266,386.882035 C706.152594,380.58463 705.638789,374.866901 701.330732,367.370617 C691.410342,350.17791 673.993667,333.15647 673.269071,332.471397 C668.051973,327.75493 661.688695,324.290039 654.943357,322.551007 L540.048641,291.973019 L796.740379,242.133928 C805.567286,240.276325 813.564201,235.783824 819.848432,229.130707 L905.19277,138.345306 L905.19277,138.345306 Z" id="Shape" fill="#FFFFFF" sketch:type="MSShapeGroup"></path>
                <path d="M119.387217,476.758397 C117.121205,476.758397 114.868367,475.941579 113.076637,474.479211 L31.7373433,407.407889 C29.4581567,405.497588 28.1407079,402.74412 28.1407079,399.740336 C28.1407079,396.762902 29.4713312,393.96991 31.7373433,392.112307 L113.129334,325.014636 C114.855192,323.565442 117.068507,322.774973 119.387217,322.774973 L410.003263,322.774973 L410.003263,476.758397 L119.387217,476.758397 L119.387217,476.758397 Z" id="Shape" fill="#B6B6B6" sketch:type="MSShapeGroup"></path>
                <path d="M408.646291,324.131946 L408.646291,475.401425 L119.387217,475.401425 C117.424218,475.401425 115.500742,474.703177 113.959327,473.438426 L32.6068595,406.380278 C30.6438607,404.746642 29.4845057,402.309361 29.4845057,399.740336 C29.4845057,397.184485 30.6306862,394.773554 32.6068595,393.153092 L114.012025,326.029072 C115.474393,324.79067 117.397869,324.105597 119.387217,324.105597 L408.646291,324.131946 L408.646291,324.131946 Z M411.360235,321.431175 L119.387217,321.431175 C116.765493,321.431175 114.235992,322.313866 112.272993,323.947503 L30.894176,391.058348 C28.2988017,393.192615 26.7837355,396.341318 26.7837355,399.727162 C26.7837355,403.139354 28.2856272,406.274883 30.894176,408.422324 L112.233469,475.493646 C114.262341,477.179981 116.791842,478.075846 119.387217,478.075846 L411.360235,478.075846 L411.360235,321.431175 L411.360235,321.431175 Z" id="Shape" fill="#3D3D3D" sketch:type="MSShapeGroup"></path>
                <path d="M470.48734,22.0013961 L466.653564,21.1582289 L466.653564,109.703967 C466.653564,112.826321 466.824833,115.922326 468.300375,119.202774 C469.683697,122.285604 471.146065,125.513354 471.146065,128.43809 L471.146065,133.60249 L491.540173,126.725407 L491.540173,41.2493241 C491.540173,34.6752543 487.89084,25.9932662 470.48734,22.0013961 L470.48734,22.0013961 Z" id="Shape" fill="url(#linearGradient-1)" sketch:type="MSShapeGroup"></path>
                <path d="M227.128185,302.025153 L213.72973,292.078415 C211.582289,290.602872 210.159444,288.244638 209.803733,285.715136 C209.448021,283.106588 210.172618,280.47169 211.832604,278.429644 L254.425726,226.126924 C255.545557,224.756777 257.034275,223.715993 258.760133,223.14949 L413.151966,172.770245 L413.151966,287.704484 L341.680364,302.025153 L227.128185,302.025153 L227.128185,302.025153 Z" id="Shape" fill="#ABABAB" sketch:type="MSShapeGroup"></path>
                <path d="M411.794993,174.627848 L411.794993,286.597827 L341.825284,300.655007 L227.984527,300.655007 L214.480676,290.971757 C212.649422,289.667483 211.450544,287.69131 211.134356,285.477996 C210.804994,283.264682 211.437369,280.99867 212.886563,279.246463 L255.492859,226.970091 C256.441423,225.771213 257.719348,224.914871 259.194891,224.427415 L411.794993,174.627848 L411.794993,174.627848 Z M414.495764,170.925816 L258.351723,221.884739 C256.388725,222.543463 254.676041,223.729167 253.398116,225.296931 L210.791819,277.560128 C208.881518,279.878838 208.0647,282.90897 208.473109,285.87323 C208.881518,288.811141 210.528329,291.459214 212.952435,293.158723 L227.128185,303.355777 L341.838458,303.355777 L414.508938,288.811141 L414.495764,170.925816 L414.495764,170.925816 Z" id="Shape" fill="#3D3D3D" sketch:type="MSShapeGroup"></path>
                <path d="M479.340597,150.86107 L785.001909,53.3039813 L788.018867,52.8428742 C789.652504,52.8428742 791.246617,53.2117599 792.616764,53.9363567 L878.553954,98.6769204 C881.267898,100.047067 883.191374,102.721488 883.705179,105.725272 C884.218984,108.729055 883.27042,111.864584 881.162502,114.104247 L790.535195,210.093571 C789.191397,211.516416 787.399666,212.517677 785.50254,212.952435 L479.340597,278.811704 L479.340597,150.86107 L479.340597,150.86107 Z" id="Shape" fill="#A5A5A5" sketch:type="MSShapeGroup"></path>
                <path d="M788.032042,54.186672 C789.454886,54.186672 790.838208,54.5028598 792.010737,55.1220607 L877.961102,99.8494499 C880.292986,101.061503 881.939797,103.327515 882.374555,105.936064 C882.822488,108.518263 882.018844,111.245383 880.18759,113.182032 L789.560282,209.145008 C788.400927,210.370236 786.859512,211.252926 785.212701,211.621812 L480.684395,277.12537 L480.684395,151.849157 L785.397144,54.5819067 L788.032042,54.186672 L788.032042,54.186672 Z M788.032042,51.4990763 L784.5935,51.9865324 L477.983625,149.886158 L477.983625,280.47169 L785.805553,214.269884 C787.952995,213.782428 789.99504,212.623073 791.523281,211.002611 L882.150589,115.039635 C884.56152,112.510134 885.641828,108.926673 885.048976,105.474957 C884.469299,102.049589 882.282334,99.072155 879.212678,97.4912164 L793.288663,52.7506528 C791.681375,51.92066 789.863296,51.4990763 788.032042,51.4990763 L788.032042,51.4990763 Z" id="Shape" fill="#3D3D3D" sketch:type="MSShapeGroup"></path>
                <path d="M466.653564,60.9320102 L466.653564,21.7510808 L464.348029,21.4217186 C459.644736,20.7102962 455.270806,20.5917258 452.425116,20.5917258 C446.298979,20.5917258 434.744953,21.2636248 426.260582,25.8088234 C420.134445,29.3791098 416.867171,34.6620798 416.867171,41.1307537 L416.867171,303.27673 L428.63199,303.27673 L428.63199,497.942975 L416.867171,497.942975 L416.867171,552.129647 L466.653564,586.989344 L466.64039,533.922504 C466.482296,530.65523 465.625954,526.254951 464.651042,521.14325 C463.175499,513.646965 461.35742,504.306253 461.35742,495.940453 L461.35742,99.0326316 C461.35742,90.6668312 463.175499,81.3261188 464.637868,73.8430092 C465.625954,68.7313076 466.49547,64.3442028 466.653564,60.9320102 L466.653564,60.9320102 Z" id="Shape" fill="url(#linearGradient-2)" sketch:type="MSShapeGroup"></path>
                <path d="M650.951487,408.382801 L649.041186,408.185183 L492.291119,382.37636 L492.26477,301.498174 L651.149104,342.470834 C652.66417,342.866068 654.047492,343.590665 655.035578,344.473356 C655.865571,345.342872 680.883925,372.917077 685.798009,379.464798 C686.364512,380.215744 687.418471,381.572716 687.141807,383.311749 C686.957364,384.708245 685.679439,385.749029 685.00754,386.302358 C680.936623,389.503758 665.522471,400.148745 658.935227,404.693944 L655.747001,406.894084 C653.322895,408.106136 652.058144,408.382801 650.951487,408.382801 L650.951487,408.382801 Z" id="Shape" fill="#7A7A7A" sketch:type="MSShapeGroup"></path>
                <path d="M493.595394,303.263555 L650.793393,343.801457 C652.110842,344.130819 653.283371,344.723671 653.981619,345.342872 C654.877484,346.291436 679.816791,373.773419 684.704527,380.294791 C685.350077,381.137958 685.969278,382.060172 685.784835,383.219527 C685.666264,384.036346 684.651829,384.853164 684.138024,385.261573 C680.119805,388.42345 664.718827,399.068437 658.144758,403.600461 L655.285894,405.589809 C652.795915,406.841386 651.715607,407.025828 650.938312,407.025828 L649.265152,406.815037 L493.608568,381.217005 L493.595394,303.263555 L493.595394,303.263555 Z M490.894623,299.78549 L490.920972,383.509366 L648.81722,409.515807 L650.938312,409.752948 C652.374331,409.752948 653.902572,409.370887 656.550644,408.000741 C657.090798,407.605506 680.607261,391.506281 685.811184,387.39584 C686.588479,386.776639 688.208941,385.472365 688.459256,383.575239 C688.814967,381.309226 687.484344,379.53067 686.865143,378.713852 C681.898361,372.100259 656.866832,344.51288 655.918269,343.524793 C654.811612,342.523532 653.257022,341.680364 651.478466,341.219257 L490.894623,299.78549 L490.894623,299.78549 Z" id="Shape" fill="#3D3D3D" sketch:type="MSShapeGroup"></path>
                <path d="M487.864491,332.339652 C479.814878,332.339652 465.942142,374.65611 465.942142,391.295489 L465.942142,589.53202 L490.802402,605.183313 L490.802402,332.339652 L487.864491,332.339652 L487.864491,332.339652 Z" id="Shape" fill="url(#linearGradient-3)" sketch:type="MSShapeGroup"></path>
                <path d="M490.789228,295.424735 L521.775625,288.811141 L611.810081,314.672663 L490.789228,343.537967 L490.789228,295.424735 Z" id="Shape" opacity="0.6" fill="url(#linearGradient-4)" sketch:type="MSShapeGroup"></path>
                <path d="M905.19277,138.345306 C914.783797,128.187775 922.780712,116.146292 920.462002,102.418475 C918.143292,88.63796 906.786883,75.160458 894.416038,68.7049586 L812.668336,26.5070713 C802.603026,21.2767993 788.888383,20.1569677 778.01943,23.7140797 L496.045849,119.492613 L496.045849,48.9695745 C496.045849,32.9625707 488.878927,13.1744887 453.255109,13.1744887 C415.62877,13.1744887 409.81882,31.1576658 409.81882,46.2951533 L409.81882,148.292045 L385.393318,156.341657 L252.212412,200.186356 C243.925658,202.939824 236.692864,207.906606 231.264975,214.625595 L198.052089,257.113321 C191.280401,265.439598 186.247747,276.374424 186.247747,287.085283 C186.247747,293.382689 188.737725,298.244075 188.737725,298.244075 L119.8088,298.244075 C109.400954,298.244075 99.2829469,301.840711 91.3519047,308.441129 L17.2981037,369.531234 C6.91660657,378.055128 2.59537427,386.618545 2.59537427,400.043349 C2.59537427,413.468153 6.89025759,422.624423 17.2454057,431.161492 L91.8525352,491.76414 C99.8757988,498.443606 110.046504,502.106113 120.480699,502.106113 L411.175792,502.106113 L411.175792,557.662932 L497.402821,616.184011 L497.402821,406.446151 L641.518553,426.405501 C651.13593,428.052312 660.463468,426.721689 668.684349,422.808866 C669.224503,422.532202 684.256594,414.45624 695.823795,402.493804 C700.619309,397.500673 705.138159,392.17818 705.599266,386.882035 C706.152594,380.58463 705.638789,374.866901 701.330732,367.370617 C691.410342,350.17791 673.993667,333.15647 673.269071,332.471397 C668.051973,327.75493 661.688695,324.290039 654.943357,322.551007 L540.048641,291.973019 L796.740379,242.133928 C805.567286,240.276325 813.564201,235.783824 819.848432,229.130707 L905.19277,138.345306 L905.19277,138.345306 Z M467.338638,21.8301278 L470.698132,22.6864695 C485.980539,26.6388162 489.195114,35.2944552 489.195114,41.8158271 L489.195114,126.040333 L472.371292,132.100598 L472.371292,128.530312 C472.371292,125.579226 471.080192,122.391 469.881314,119.334519 C468.563865,116.08042 467.351812,113.023939 467.351812,109.875236 L467.338638,21.8301278 L467.338638,21.8301278 Z M201.75412,265.241981 L240.513466,217.497634 C244.465812,212.649422 249.669735,209.039612 255.585081,207.116137 L414.495764,155.103255 L414.495764,303.382126 L204.33632,303.382126 C198.829383,299.66692 195.351318,294.00189 194.824339,290.260335 C193.572762,281.314857 196.102264,272.22446 201.75412,265.241981 L201.75412,265.241981 Z M117.397869,495.452997 C109.822538,495.452997 102.444824,492.804924 96.6743981,487.956713 L20.7893432,425.430589 C13.3062336,419.225405 8.98500129,410.08231 8.98500129,400.372712 C8.98500129,390.62359 13.3062336,381.46732 20.8156921,375.288485 L96.7666195,312.696489 C102.576569,307.887801 109.88841,305.226554 117.384694,305.226554 L427.103749,305.226554 L427.103749,495.479346 L117.397869,495.452997 L117.397869,495.452997 Z M463.952794,584.947298 L417.222883,552.221868 L417.222883,498.048371 L428.961352,498.048371 L428.961352,303.355777 L417.222883,303.355777 L417.222883,41.1834517 C417.222883,34.7279522 420.450632,29.4186333 426.603119,25.8746958 C435.087489,21.3294972 446.641516,20.6575983 452.767653,20.6575983 C455.586994,20.6575983 459.974099,20.8288666 464.690565,21.4875911 L463.965969,21.8301278 L463.965969,60.9978827 C463.807875,64.4232497 462.964707,68.823529 461.950272,73.8957071 C460.501078,81.3919912 458.669824,90.7327037 458.669824,99.1116785 L458.669824,496.032674 C458.669824,504.411649 460.501078,513.739187 461.950272,521.222296 C462.964707,526.320824 463.821049,530.734277 463.965969,534.001551 L463.952794,584.947298 L463.952794,584.947298 Z M489.195114,602.601113 L467.338638,587.318706 L467.338638,393.864514 C467.338638,377.62037 479.090282,336.305173 486.494344,336.305173 L489.195114,336.305173 L489.195114,602.601113 L489.195114,602.601113 Z M792.774858,230.711646 L494.319991,294.673789 L500.933584,296.386472 L516.413608,293.09285 L654.21876,329.401741 C659.277764,330.771888 663.954707,333.327739 667.762134,336.805804 C668.671174,337.701669 687.813706,357.239436 696.772358,371.349313 C700.368994,377.027518 700.513913,383.746507 700.289947,385.669982 C700.065981,387.448538 698.366472,393.46928 693.755401,397.777337 C683.360729,407.460587 664.363116,418.487634 663.546298,418.935566 C659.106495,421.03031 654.390028,422.110618 649.634038,422.110618 C647.750086,422.110618 645.85296,421.926175 643.942659,421.596813 L490.960496,395.78799 L490.920972,295.41156 L463.755177,301.22151 L463.755177,138.002769 L780.351315,35.3471532 C788.361404,32.7386044 797.912908,33.4895503 805.435541,37.3760244 L886.524519,79.5870862 C895.496346,84.2508552 901.872799,93.0118902 903.545959,103.011327 C905.245468,112.958066 902.109939,123.30004 895.180158,130.664579 L809.651378,221.239189 C805.132528,226.047877 799.283055,229.341499 792.774858,230.711646 L792.774858,230.711646 Z" id="Shape" fill="#3D3D3D" sketch:type="MSShapeGroup"></path>
            </g>
        </g>
    </g>
</svg>