<?xml version="1.0" encoding="UTF-8" standalone="no"?>
<svg width="271px" height="240px" viewBox="0 0 271 240" version="1.1" xmlns="http://www.w3.org/2000/svg" xmlns:xlink="http://www.w3.org/1999/xlink" xmlns:sketch="http://www.bohemiancoding.com/sketch/ns">
    <!-- Generator: Sketch 3.3.3 (12081) - http://www.bohemiancoding.com/sketch -->
    <title>debate-summary-vertical</title>
    <desc>Created with Sketch.</desc>
    <defs>
        <linearGradient x1="50.026469%" y1="97.106034%" x2="50.026469%" y2="614.715876%" id="linearGradient-1">
            <stop stop-color="#5B5B5B" offset="0%"></stop>
            <stop stop-color="#4F3635" offset="100%"></stop>
        </linearGradient>
        <linearGradient x1="50.013231%" y1="7.64328247%" x2="50.013231%" y2="91.4725879%" id="linearGradient-2">
            <stop stop-color="#969696" offset="0%"></stop>
            <stop stop-color="#515151" offset="100%"></stop>
        </linearGradient>
        <linearGradient x1="49.9735029%" y1="-77.3056494%" x2="49.9735029%" y2="140.038629%" id="linearGradient-3">
            <stop stop-color="#5B5B5B" offset="0%"></stop>
            <stop stop-color="#434343" offset="100%"></stop>
        </linearGradient>
        <linearGradient x1="90.3766601%" y1="13.2643235%" x2="-0.860004354%" y2="56.4275397%" id="linearGradient-4">
            <stop stop-color="#B3B3B3" offset="0%"></stop>
            <stop stop-color="#1A1A1A" offset="100%"></stop>
        </linearGradient>
    </defs>
    <g id="Page-1" stroke="none" stroke-width="1" fill="none" fill-rule="evenodd" sketch:type="MSPage">
        <g id="debate-summary-vertical" sketch:type="MSArtboardGroup">
            <g id="Signpost-Greyscale" sketch:type="MSLayerGroup" transform="translate(35.000000, 11.000000)">
                <path d="M196.308571,28.0028571 C198.388571,25.8 200.122857,23.1885714 199.62,20.2114286 C199.117143,17.2228571 196.654286,14.3 193.971429,12.9 L176.242857,3.74857143 C174.06,2.61428571 171.085714,2.37142857 168.728571,3.14285714 L107.577143,23.9142857 L107.577143,8.62 C107.577143,5.14857143 106.022857,0.857142857 98.2971429,0.857142857 C90.1371429,0.857142857 88.8771429,4.75714286 88.8771429,8.04 L88.8771429,30.16 L83.58,31.9057143 L54.6971429,41.4142857 C52.9,42.0114286 51.3314286,43.0885714 50.1542857,44.5457143 L42.9514286,53.76 C41.4828571,55.5657143 40.3914286,57.9371429 40.3914286,60.26 C40.3914286,61.6257143 40.9314286,62.68 40.9314286,62.68 L25.9828571,62.68 C23.7257143,62.68 21.5314286,63.46 19.8114286,64.8914286 L3.75142857,78.14 C1.5,79.9885714 0.562857143,81.8457143 0.562857143,84.7571429 C0.562857143,87.6685714 1.49428571,89.6542857 3.74,91.5057143 L19.92,104.648571 C21.66,106.097143 23.8657143,106.891429 26.1285714,106.891429 L89.1714286,106.891429 L89.1714286,118.94 L107.871429,131.631429 L107.871429,86.1457143 L139.125714,90.4742857 C141.211429,90.8314286 143.234286,90.5428571 145.017143,89.6942857 C145.134286,89.6342857 148.394286,87.8828571 150.902857,85.2885714 C151.942857,84.2057143 152.922857,83.0514286 153.022857,81.9028571 C153.142857,80.5371429 153.031429,79.2971429 152.097143,77.6714286 C149.945714,73.9428571 146.168571,70.2514286 146.011429,70.1028571 C144.88,69.08 143.5,68.3285714 142.037143,67.9514286 L117.12,61.32 L172.788571,50.5114286 C174.702857,50.1085714 176.437143,49.1342857 177.8,47.6914286 L196.308571,28.0028571 L196.308571,28.0028571 Z" id="Shape" fill="#FFFFFF" sketch:type="MSShapeGroup"></path>
                <path d="M25.8914286,101.394286 C25.4,101.394286 24.9114286,101.217143 24.5228571,100.9 L6.88285714,86.3542857 C6.38857143,85.94 6.10285714,85.3428571 6.10285714,84.6914286 C6.10285714,84.0457143 6.39142857,83.44 6.88285714,83.0371429 L24.5342857,68.4857143 C24.9085714,68.1714286 25.3885714,68 25.8914286,68 L88.9171429,68 L88.9171429,101.394286 L25.8914286,101.394286 L25.8914286,101.394286 Z" id="Shape" fill="#B6B6B6" sketch:type="MSShapeGroup"></path>
                <path d="M88.6228571,68.2942857 L88.6228571,101.1 L25.8914286,101.1 C25.4657143,101.1 25.0485714,100.948571 24.7142857,100.674286 L7.07142857,86.1314286 C6.64571429,85.7771429 6.39428571,85.2485714 6.39428571,84.6914286 C6.39428571,84.1371429 6.64285714,83.6142857 7.07142857,83.2628571 L24.7257143,68.7057143 C25.0428571,68.4371429 25.46,68.2885714 25.8914286,68.2885714 L88.6228571,68.2942857 L88.6228571,68.2942857 Z M89.2114286,67.7085714 L25.8914286,67.7085714 C25.3228571,67.7085714 24.7742857,67.9 24.3485714,68.2542857 L6.7,82.8085714 C6.13714286,83.2714286 5.80857143,83.9542857 5.80857143,84.6885714 C5.80857143,85.4285714 6.13428571,86.1085714 6.7,86.5742857 L24.34,101.12 C24.78,101.485714 25.3285714,101.68 25.8914286,101.68 L89.2114286,101.68 L89.2114286,67.7085714 L89.2114286,67.7085714 Z" id="Shape" fill="#3D3D3D" sketch:type="MSShapeGroup"></path>
                <path d="M102.034286,2.77142857 L101.202857,2.58857143 L101.202857,21.7914286 C101.202857,22.4685714 101.24,23.14 101.56,23.8514286 C101.86,24.52 102.177143,25.22 102.177143,25.8542857 L102.177143,26.9742857 L106.6,25.4828571 L106.6,6.94571429 C106.6,5.52 105.808571,3.63714286 102.034286,2.77142857 L102.034286,2.77142857 Z" id="Shape" fill="url(#linearGradient-1)" sketch:type="MSShapeGroup"></path>
                <path d="M49.2571429,63.5 L46.3514286,61.3428571 C45.8857143,61.0228571 45.5771429,60.5114286 45.5,59.9628571 C45.4228571,59.3971429 45.58,58.8257143 45.94,58.3828571 L55.1771429,47.04 C55.42,46.7428571 55.7428571,46.5171429 56.1171429,46.3942857 L89.6,35.4685714 L89.6,60.3942857 L74.1,63.5 L49.2571429,63.5 L49.2571429,63.5 Z" id="Shape" fill="#ABABAB" sketch:type="MSShapeGroup"></path>
                <path d="M89.3057143,35.8714286 L89.3057143,60.1542857 L74.1314286,63.2028571 L49.4428571,63.2028571 L46.5142857,61.1028571 C46.1171429,60.82 45.8571429,60.3914286 45.7885714,59.9114286 C45.7171429,59.4314286 45.8542857,58.94 46.1685714,58.56 L55.4085714,47.2228571 C55.6142857,46.9628571 55.8914286,46.7771429 56.2114286,46.6714286 L89.3057143,35.8714286 L89.3057143,35.8714286 Z M89.8914286,35.0685714 L56.0285714,46.12 C55.6028571,46.2628571 55.2314286,46.52 54.9542857,46.86 L45.7142857,58.1942857 C45.3,58.6971429 45.1228571,59.3542857 45.2114286,59.9971429 C45.3,60.6342857 45.6571429,61.2085714 46.1828571,61.5771429 L49.2571429,63.7885714 L74.1342857,63.7885714 L89.8942857,60.6342857 L89.8914286,35.0685714 L89.8914286,35.0685714 Z" id="Shape" fill="#3D3D3D" sketch:type="MSShapeGroup"></path>
                <path d="M103.954286,30.7171429 L170.242857,9.56 L170.897143,9.46 C171.251429,9.46 171.597143,9.54 171.894286,9.69714286 L190.531429,19.4 C191.12,19.6971429 191.537143,20.2771429 191.648571,20.9285714 C191.76,21.58 191.554286,22.26 191.097143,22.7457143 L171.442857,43.5628571 C171.151429,43.8714286 170.762857,44.0885714 170.351429,44.1828571 L103.954286,58.4657143 L103.954286,30.7171429 L103.954286,30.7171429 Z" id="Shape" fill="#A5A5A5" sketch:type="MSShapeGroup"></path>
                <path d="M170.9,9.75142857 C171.208571,9.75142857 171.508571,9.82 171.762857,9.95428571 L190.402857,19.6542857 C190.908571,19.9171429 191.265714,20.4085714 191.36,20.9742857 C191.457143,21.5342857 191.282857,22.1257143 190.885714,22.5457143 L171.231429,43.3571429 C170.98,43.6228571 170.645714,43.8142857 170.288571,43.8942857 L104.245714,58.1 L104.245714,30.9314286 L170.328571,9.83714286 L170.9,9.75142857 L170.9,9.75142857 Z M170.9,9.16857143 L170.154286,9.27428571 L103.66,30.5057143 L103.66,58.8257143 L170.417143,44.4685714 C170.882857,44.3628571 171.325714,44.1114286 171.657143,43.76 L191.311429,22.9485714 C191.834286,22.4 192.068571,21.6228571 191.94,20.8742857 C191.814286,20.1314286 191.34,19.4857143 190.674286,19.1428571 L172.04,9.44 C171.691429,9.26 171.297143,9.16857143 170.9,9.16857143 L170.9,9.16857143 Z" id="Shape" fill="#3D3D3D" sketch:type="MSShapeGroup"></path>
                <path d="M101.202857,11.2142857 L101.202857,2.71714286 L100.702857,2.64571429 C99.6828571,2.49142857 98.7342857,2.46571429 98.1171429,2.46571429 C96.7885714,2.46571429 94.2828571,2.61142857 92.4428571,3.59714286 C91.1142857,4.37142857 90.4057143,5.51714286 90.4057143,6.92 L90.4057143,63.7714286 L92.9571429,63.7714286 L92.9571429,105.988571 L90.4057143,105.988571 L90.4057143,117.74 L101.202857,125.3 L101.2,113.791429 C101.165714,113.082857 100.98,112.128571 100.768571,111.02 C100.448571,109.394286 100.054286,107.368571 100.054286,105.554286 L100.054286,19.4771429 C100.054286,17.6628571 100.448571,15.6371429 100.765714,14.0142857 C100.98,12.9057143 101.168571,11.9542857 101.202857,11.2142857 L101.202857,11.2142857 Z" id="Shape" fill="url(#linearGradient-2)" sketch:type="MSShapeGroup"></path>
                <path d="M141.171429,86.5657143 L140.757143,86.5228571 L106.762857,80.9257143 L106.757143,63.3857143 L141.214286,72.2714286 C141.542857,72.3571429 141.842857,72.5142857 142.057143,72.7057143 C142.237143,72.8942857 147.662857,78.8742857 148.728571,80.2942857 C148.851429,80.4571429 149.08,80.7514286 149.02,81.1285714 C148.98,81.4314286 148.702857,81.6571429 148.557143,81.7771429 C147.674286,82.4714286 144.331429,84.78 142.902857,85.7657143 L142.211429,86.2428571 C141.685714,86.5057143 141.411429,86.5657143 141.171429,86.5657143 L141.171429,86.5657143 Z" id="Shape" fill="#7A7A7A" sketch:type="MSShapeGroup"></path>
                <path d="M107.045714,63.7685714 L141.137143,72.56 C141.422857,72.6314286 141.677143,72.76 141.828571,72.8942857 C142.022857,73.1 147.431429,79.06 148.491429,80.4742857 C148.631429,80.6571429 148.765714,80.8571429 148.725714,81.1085714 C148.7,81.2857143 148.48,81.4628571 148.368571,81.5514286 C147.497143,82.2371429 144.157143,84.5457143 142.731429,85.5285714 L142.111429,85.96 C141.571429,86.2314286 141.337143,86.2714286 141.168571,86.2714286 L140.805714,86.2257143 L107.048571,80.6742857 L107.045714,63.7685714 L107.045714,63.7685714 Z M106.46,63.0142857 L106.465714,81.1714286 L140.708571,86.8114286 L141.168571,86.8628571 C141.48,86.8628571 141.811429,86.78 142.385714,86.4828571 C142.502857,86.3971429 147.602857,82.9057143 148.731429,82.0142857 C148.9,81.88 149.251429,81.5971429 149.305714,81.1857143 C149.382857,80.6942857 149.094286,80.3085714 148.96,80.1314286 C147.882857,78.6971429 142.454286,72.7142857 142.248571,72.5 C142.008571,72.2828571 141.671429,72.1 141.285714,72 L106.46,63.0142857 L106.46,63.0142857 Z" id="Shape" fill="#3D3D3D" sketch:type="MSShapeGroup"></path>
                <path d="M105.802857,70.0742857 C104.057143,70.0742857 101.048571,79.2514286 101.048571,82.86 L101.048571,125.851429 L106.44,129.245714 L106.44,70.0742857 L105.802857,70.0742857 L105.802857,70.0742857 Z" id="Shape" fill="url(#linearGradient-3)" sketch:type="MSShapeGroup"></path>
                <path d="M106.437143,62.0685714 L113.157143,60.6342857 L132.682857,66.2428571 L106.437143,72.5028571 L106.437143,62.0685714 Z" id="Shape" opacity="0.6" fill="url(#linearGradient-4)" sketch:type="MSShapeGroup"></path>
                <path d="M196.308571,28.0028571 C198.388571,25.8 200.122857,23.1885714 199.62,20.2114286 C199.117143,17.2228571 196.654286,14.3 193.971429,12.9 L176.242857,3.74857143 C174.06,2.61428571 171.085714,2.37142857 168.728571,3.14285714 L107.577143,23.9142857 L107.577143,8.62 C107.577143,5.14857143 106.022857,0.857142857 98.2971429,0.857142857 C90.1371429,0.857142857 88.8771429,4.75714286 88.8771429,8.04 L88.8771429,30.16 L83.58,31.9057143 L54.6971429,41.4142857 C52.9,42.0114286 51.3314286,43.0885714 50.1542857,44.5457143 L42.9514286,53.76 C41.4828571,55.5657143 40.3914286,57.9371429 40.3914286,60.26 C40.3914286,61.6257143 40.9314286,62.68 40.9314286,62.68 L25.9828571,62.68 C23.7257143,62.68 21.5314286,63.46 19.8114286,64.8914286 L3.75142857,78.14 C1.5,79.9885714 0.562857143,81.8457143 0.562857143,84.7571429 C0.562857143,87.6685714 1.49428571,89.6542857 3.74,91.5057143 L19.92,104.648571 C21.66,106.097143 23.8657143,106.891429 26.1285714,106.891429 L89.1714286,106.891429 L89.1714286,118.94 L107.871429,131.631429 L107.871429,86.1457143 L139.125714,90.4742857 C141.211429,90.8314286 143.234286,90.5428571 145.017143,89.6942857 C145.134286,89.6342857 148.394286,87.8828571 150.902857,85.2885714 C151.942857,84.2057143 152.922857,83.0514286 153.022857,81.9028571 C153.142857,80.5371429 153.031429,79.2971429 152.097143,77.6714286 C149.945714,73.9428571 146.168571,70.2514286 146.011429,70.1028571 C144.88,69.08 143.5,68.3285714 142.037143,67.9514286 L117.12,61.32 L172.788571,50.5114286 C174.702857,50.1085714 176.437143,49.1342857 177.8,47.6914286 L196.308571,28.0028571 L196.308571,28.0028571 Z M101.351429,2.73428571 L102.08,2.92 C105.394286,3.77714286 106.091429,5.65428571 106.091429,7.06857143 L106.091429,25.3342857 L102.442857,26.6485714 L102.442857,25.8742857 C102.442857,25.2342857 102.162857,24.5428571 101.902857,23.88 C101.617143,23.1742857 101.354286,22.5114286 101.354286,21.8285714 L101.351429,2.73428571 L101.351429,2.73428571 Z M43.7542857,55.5228571 L52.16,45.1685714 C53.0171429,44.1171429 54.1457143,43.3342857 55.4285714,42.9171429 L89.8914286,31.6371429 L89.8914286,63.7942857 L44.3142857,63.7942857 C43.12,62.9885714 42.3657143,61.76 42.2514286,60.9485714 C41.98,59.0085714 42.5285714,57.0371429 43.7542857,55.5228571 L43.7542857,55.5228571 Z M25.46,105.448571 C23.8171429,105.448571 22.2171429,104.874286 20.9657143,103.822857 L4.50857143,90.2628571 C2.88571429,88.9171429 1.94857143,86.9342857 1.94857143,84.8285714 C1.94857143,82.7142857 2.88571429,80.7285714 4.51428571,79.3885714 L20.9857143,65.8142857 C22.2457143,64.7714286 23.8314286,64.1942857 25.4571429,64.1942857 L92.6257143,64.1942857 L92.6257143,105.454286 L25.46,105.448571 L25.46,105.448571 Z M100.617143,124.857143 L90.4828571,117.76 L90.4828571,106.011429 L93.0285714,106.011429 L93.0285714,63.7885714 L90.4828571,63.7885714 L90.4828571,6.93142857 C90.4828571,5.53142857 91.1828571,4.38 92.5171429,3.61142857 C94.3571429,2.62571429 96.8628571,2.48 98.1914286,2.48 C98.8028571,2.48 99.7542857,2.51714286 100.777143,2.66 L100.62,2.73428571 L100.62,11.2285714 C100.585714,11.9714286 100.402857,12.9257143 100.182857,14.0257143 C99.8685714,15.6514286 99.4714286,17.6771429 99.4714286,19.4942857 L99.4714286,105.574286 C99.4714286,107.391429 99.8685714,109.414286 100.182857,111.037143 C100.402857,112.142857 100.588571,113.1 100.62,113.808571 L100.617143,124.857143 L100.617143,124.857143 Z M106.091429,128.685714 L101.351429,125.371429 L101.351429,83.4171429 C101.351429,79.8942857 103.9,70.9342857 105.505714,70.9342857 L106.091429,70.9342857 L106.091429,128.685714 L106.091429,128.685714 Z M171.928571,48.0342857 L107.202857,61.9057143 L108.637143,62.2771429 L111.994286,61.5628571 L141.88,69.4371429 C142.977143,69.7342857 143.991429,70.2885714 144.817143,71.0428571 C145.014286,71.2371429 149.165714,75.4742857 151.108571,78.5342857 C151.888571,79.7657143 151.92,81.2228571 151.871429,81.64 C151.822857,82.0257143 151.454286,83.3314286 150.454286,84.2657143 C148.2,86.3657143 144.08,88.7571429 143.902857,88.8542857 C142.94,89.3085714 141.917143,89.5428571 140.885714,89.5428571 C140.477143,89.5428571 140.065714,89.5028571 139.651429,89.4314286 L106.474286,83.8342857 L106.465714,62.0657143 L100.574286,63.3257143 L100.574286,27.9285714 L169.234286,5.66571429 C170.971429,5.1 173.042857,5.26285714 174.674286,6.10571429 L192.26,15.26 C194.205714,16.2714286 195.588571,18.1714286 195.951429,20.34 C196.32,22.4971429 195.64,24.74 194.137143,26.3371429 L175.588571,45.98 C174.608571,47.0228571 173.34,47.7371429 171.928571,48.0342857 L171.928571,48.0342857 Z" id="Shape" fill="#3D3D3D" sketch:type="MSShapeGroup"></path>
            </g>
            <g id="Debate-+-Summary" sketch:type="MSLayerGroup" transform="translate(18.142857, 143.857143)" font-weight="normal" font-family="Arial Rounded MT Bold" fill="#3D3D3D" font-size="51.1022409" sketch:alignment="right">
                <text id="Debate" sketch:type="MSTextLayer">
                    <tspan x="28.0423478" y="48.9688084">Debate</tspan>
                </text>
                <text id="Summary" sketch:type="MSTextLayer">
                    <tspan x="0.176133442" y="79.6315789">Summary</tspan>
                </text>
            </g>
        </g>
    </g>
</svg>